<svg xmlns="http://www.w3.org/2000/svg" viewBox="0 0 120 120" width="200" height="200">
    <g stroke-width="2" stroke="#000" fill="#fff">
        <!-- 1 .. 10 -->
        <g stroke-linecap="square" transform="translate(4,4)">
            <g transform="translate(0,0)">
                <path d="M0,0h16v16h-16Z"/>
                <path d="M8,8h0"/>
            </g>
            <g transform="translate(24,0)">
                <path d="M0,0h16v16h-16Z"/>
                <path d="        M12,4h0
                         M4,12h0"/>
            </g>
            <g transform="translate(48,0)">
                <path d="M0,0h16v16h-16Z"/>
                <path d="        M12,4h0
                             M8,8h0
                         M4,12h0"/>
            </g>
            <g transform="translate(72,0)">
                <path d="M0,0h16v16h-16Z"/>
                <path d="M4,4h0  M12,4h0
                         M4,12h0 M12,12h0"/>
            </g>
            <g transform="translate(96,0)">
                <path d="M0,0h16v16h-16Z"/>
                <path d="M4,4h0  M12,4h0
                             M8,8h0
                         M4,12h0 M12,12h0"/>
            </g>
            <g transform="translate(0,24)">
                <path d="M0,0h16v16h-16Z"/>
                <path d="M4,4h0  M12,4h0
                         M4,8h0  M12,8h0
                         M4,12h0 M12,12h0"/>
            </g>
            <g transform="translate(24,24)">
                <path d="M0,0h16v16h-16Z"/>
                <path d="M4,4h0         M12,4h0
                         M4,8h0  M8,8h0 M12,8h0
                         M4,12h0        M12,12h0"/>
            </g>
            <g transform="translate(48,24)">
                <path d="M0,0h16v16h-16Z"/>
                <path d="M4,4h0  M8,4h0  M12,4h0
                         M4,8h0          M12,8h0
                         M4,12h0 M8,12h0 M12,12h0"/>
            </g>
            <g transform="translate(72,24)">
                <path d="M0,0h16v16h-16Z"/>
                <path d="M4,4h0  M8,4h0  M12,4h0
                         M4,8h0  M8,8h0  M12,8h0
                         M4,12h0 M8,12h0 M12,12h0"/>
            </g>
            <g transform="translate(96,24)">
                <path d="M0,0h16v16h-16Z"/>
                <path d="M4,4h0    M8,4h0     M12,4h0
                         M4,8h0 M9,7h0 M7,9h0 M12,8h0
                         M4,12h0   M8,12h0    M12,12h0"/>
            </g>
        </g>
        <!-- 11 .. 20 -->
        <g stroke-linecap="butt" transform="translate(4,4)">
            <g transform="translate(0,48)">
                <path d="M0,0h16v16h-16Z"/>
                <path d="M4,3v1  M12,3v1
                         M4,5v1  M12,5v1
                         M4,10v1 M12,10v1
                         M4,12v1 M12,12v1"/>
                <path d="M4,8h0  M8,8h0  M12,8h0" stroke-linecap="square"/>
            </g>
            <g transform="translate(24,48)">
                <path d="M0,0h16v16h-16Z"/>
                <path d="M4,3v1  M12,3v1
                         M4,5v1  M12,5v1
                         M4,10v1 M12,10v1
                         M4,12v1 M12,12v1"/>
                <path d="M8,4h0  M4,8h0  M12,8h0 M8,12h0" stroke-linecap="square"/>
            </g>
            <g transform="translate(48,48)">
                <path d="M0,0h16v16h-16Z"/>
                <path d="M4,3v1  M12,3v1
                         M4,5v1  M12,5v1
                         M4,10v1 M12,10v1
                         M4,12v1 M12,12v1"/>
                <path d="M8,4h0  M4,8h0  M8,8h0 M12,8h0 M8,12h0" stroke-linecap="square"/>
            </g>
            <g transform="translate(72,48)">
                <path d="M0,0h16v16h-16Z"/>
                <path d="M6,4h1  M9,4h1
                         M4,3v1  M12,3v1
                         M4,5v1  M12,5v1
                         M4,10v1 M12,10v1
                         M4,12v1 M12,12v1
                         M6,12h1 M9,12h1"/>
                <path d="M4,8h0  M12,8h0" stroke-linecap="square"/>
            </g>
            <g transform="translate(96,48)">
                <path d="M0,0h16v16h-16Z"/>
                <path d="M6,4h1  M9,4h1
                         M4,3v1  M12,3v1
                         M4,5v1  M12,5v1
                         M4,10v1 M12,10v1
                         M4,12v1 M12,12v1
                         M6,12h1 M9,12h1"/>
                <path d="M4,8h0  M8,8h0  M12,8h0" stroke-linecap="square"/>
            </g>
            <g transform="translate(0,72)">
                <path d="M0,0h16v16h-16Z"/>
                <path d="M6,4h1  M9,4h1
                         M4,3v1  M12,3v1
                         M4,5v1  M12,5v1
                         M6,8h1  M9,8h1
                         M4,10v1 M12,10v1
                         M4,12v1 M12,12v1
                         M6,12h1 M9,12h1"/>
                <path d="M4,8h0  M12,8h0" stroke-linecap="square"/>
            </g>
            <g transform="translate(24,72)">
                <path d="M0,0h16v16h-16Z"/>
                <path d="M6,4h1  M9,4h1
                         M4,3v1  M12,3v1
                         M4,5v1  M12,5v1
                         M3,8h1  M5,8h1  M10,8h1   M12,8h1
                         M4,10v1 M12,10v1
                         M4,12v1 M12,12v1
                         M6,12h1 M9,12h1"/>
                <path d="M8,8h0" stroke-linecap="square"/>
            </g>
            <g transform="translate(48,72)">
                <path d="M0,0h16v16h-16Z"/>
                <path d="M6,4h1  M9,4h1
                         M4,3v1  M12,3v1
                         M4,5v1  M12,5v1
                         M8,6v1
                         M3,8h1  M5,8h1  M10,8h1   M12,8h1
                         M8,9v1
                         M4,10v1 M12,10v1
                         M4,12v1 M12,12v1
                         M6,12h1 M9,12h1"/>
            </g>
            <g transform="translate(72,72)">
                <path d="M0,0h16v16h-16Z"/>
                <path d="M9,4h1
                         M4,3v1  M7,3v1  M12,3v1
                         M4,5v1  M7,5v1  M12,5v1
                         M3,8h1  M5,8h1  M10,8h1   M12,8h1
                         M4,10v1 M9,10v1  M12,10v1
                         M4,12v1 M9,12v1 M12,12v1
                         M6,12h1"/>
                <path d="M8,8h0" stroke-linecap="square"/>
            </g>>
            <g transform="translate(96,72)">
                <path d="M0,0h16v16h-16Z"/>
                <path d="M9,4h1
                         M4,3v1 M7,3v1 M12,3v1
                         M12,6h1
                         M4,5v1 M7,5v1 M10,6v1
                         M4,7v1 M7,7v1
                         M9,8v1 M12,8v1
                         M6,9v1 M9,10v1 M12,10v1
                         M3,10h1
                         M4,12v1 M9,12v1 M12,12v1
                         M6,12h1"/>
            </g>
        </g>
        <g stroke-linecap="square" transform="translate(4,4)">
           <g transform="translate(0,96)">
                <path d="M5,8h6"/>
            </g>
            <g transform="translate(24,96)">
                <path d="M5,8h6 M8,5v6"/>
            </g>
        </g>
    </g>
</svg>

