<svg xmlns="http://www.w3.org/2000/svg" viewBox="0 0 96 16" width="240" height="40">
    <g stroke-linecap="square" stroke-width="1" stroke="#888" fill="none">
        <g transform="translate(0,0)">
            <path d="M4,4h8v8h-8Z"/>
            <path d="M6,6h0 M10,6h0 M6,8h0 M10,8h0 M6,10h0 M10,10h0"/>
        </g>
        <g transform="translate(15,-1)">
            <path d="M4,4h8v8h-8Z"/>
            <path d="M6,6h0 M10,6h0 M6,8h0 M10,8h0 M6,10h0 M10,10h0"/>
            <path d="M12,6h2v8h-8v-2"/>
        </g>
        <g transform="translate(30,-2)">
            <path d="M4,4h8v8h-8Z"/>
            <path d="M6,6h0 M10,6h0 M6,8h0 M10,8h0 M6,10h0 M10,10h0"/>
            <path d="M12,6h2v8h-8v-2"/>
            <path d="M14,8h2v8h-8v-2"/>
        </g>
        <g transform="translate(48,0)">
            <path d="M4,4h8v8h-8Z"/>
            <path d="M9,6h-2v2h2v2h-2v-2h2v-2"/>
            <!--path d="M6,6h0 M10,6h0 M6,8h0 M8,6h0 M8,10h0 M10,8h0 M6,10h0 M10,10h0"/-->
        </g>
        <g transform="translate(64,0)">
            <path d="M4,4h8v8h-8Z"/>
            <path d="M6,6v4M10,6h-2v4h2v-4h-2"/>
            <!--path d="M6,6h0 M10,6h0 M6,8h0 M8,6h0 M8.5,7.5h0 M7.5,8.5h0 M8,10h0 M10,8h0 M6,10h0 M10,10h0"/-->
        </g>
        <g transform="translate(79,-1)">
            <path d="M4,4h8v8h-8Z"/>
            <path d="M6,6v4M10,6h-2v4h2v-4h-2"/>
            <!--path d="M6,6h0 M10,6h0 M6,8h0 M8,6h0 M8.5,7.5h0 M7.5,8.5h0 M8,10h0 M10,8h0 M6,10h0 M10,10h0"/-->
            <path d="M12,6h2v8h-8v-2"/>
        </g>
    </g>
</svg>

